inDegrees=yes
name=ik_lifting_orientations
DataType=double
version=3
OpenSimVersion=4.5-2024-01-10-34fd6af
endheader
time	pelvis_tilt	pelvis_list	pelvis_rotation	pelvis_tx	pelvis_ty	pelvis_tz	hip_flexion_r	hip_adduction_r	hip_rotation_r	knee_angle_r	knee_angle_r_beta	ankle_angle_r	subtalar_angle_r	mtp_angle_r	hip_flexion_l	hip_adduction_l	hip_rotation_l	knee_angle_l	knee_angle_l_beta	ankle_angle_l	subtalar_angle_l	mtp_angle_l	lumbar_extension	lumbar_bending	lumbar_rotation	arm_flex_r	arm_add_r	arm_rot_r	elbow_flex_r	pro_sup_r	wrist_flex_r	wrist_dev_r	arm_flex_l	arm_add_l	arm_rot_l	elbow_flex_l	pro_sup_l	wrist_flex_l	wrist_dev_l
1.46	4.336818755709883	29.01415962160247	-86.29599300180926	0	0.9399999998679526	0	44.93296585515203	-10.11434456294253	0	59.95472487010159	1.046407351110602	-5.020824621543132	0	0	44.93296585515203	-10.11434456294253	0	59.95472487010159	1.046407351110602	-5.020824621543132	0	0	89.97570670227583	-2.053674189707438	-16.28767208691823	-50.31395348071574	-12.07100883551668	18.28982561956021	0.01292642137869727	1.950882099468034	0	0	0	-10.94403967048566	0	88.08712371195348	1.950882099468034	0	0
1.47	4.096664664146529	29.36842840892757	-86.49170746454489	0	0.9399999998679526	0	44.93490126104778	-10.10262362390655	0	59.95575449304866	1.046425321421083	-5.018088312592427	0	0	44.93490126104778	-10.10262362390655	0	59.95575449304866	1.046425321421083	-5.018088312592427	0	0	89.97430329814055	-1.804890706012922	-16.44690156646564	-48.9981939725898	-11.71202465164632	18.40428229230869	0.01304225422482524	1.912419581481764	0	0	0	-11.00193752030698	0	88.12483279995591	1.912419581481764	0	0
1.48	3.974316793566711	29.93346424125754	-86.93477420429691	0	0.9399999998679526	0	44.93665877566841	-10.09268279619713	0	59.95669452221371	1.046441728025078	-5.015836318897024	0	0	44.93665877566841	-10.09268279619713	0	59.95669452221371	1.046441728025078	-5.015836318897024	0	0	89.97295958337159	-1.341695044705715	-16.51963816397763	-47.55722806876103	-11.44040772927755	18.37659126978674	0.01327258312733248	1.877235037797065	0	0	0	-11.05512076555881	0	88.15932815862315	1.877235037797065	0	0
1.49	3.87875111479731	30.43844312436005	-87.04122900480426	0	0.9399999998679526	0	44.93850975105261	-10.08287209832695	0	59.95768711189222	1.046459051983089	-5.01367970488247	0	0	44.93850975105261	-10.08287209832695	0	59.95768711189222	1.046459051983089	-5.01367970488247	0	0	89.97051494046353	-1.25935089650371	-16.54245599574933	-46.23504967096981	-11.36965599109526	18.46867590087518	0.01370435732460567	1.839986809314053	0	0	0	-11.11154014110231	0	88.19584680341799	1.839986809314053	0	0
1.5	3.622864841546442	30.94511209763917	-87.23434116982105	0	0.9399999998679526	0	44.94040614862391	-10.07380150253283	0	59.95871553350134	1.046477001326267	-5.01176233773674	0	0	44.94040614862391	-10.07380150253283	0	59.95871553350134	1.046477001326267	-5.01176233773674	0	0	89.96716287318934	-1.01382223387073	-16.56879230130527	-44.92556174862263	-11.3690349842488	18.66131091539578	0.01443220389996061	1.801268473736375	0	0	0	-11.17073300103281	0	88.2338068168105	1.801268473736375	0	0
1.51	3.285065205260314	31.27382531618548	-87.36484198861746	0	0.9399999998679526	0	44.94217473009639	-10.06608366087052	0	59.9596809944314	1.046493851798296	-5.01018998766791	0	0	44.94217473009639	-10.06608366087052	0	59.9596809944314	1.046493851798296	-5.01018998766791	0	0	89.96355529007111	-0.8279329998009688	-16.82392143811277	-43.84364167545002	-11.5830518288993	19.01894495002097	0.01514381999405529	1.764748291329745	0	0	0	-11.22694076023553	0	88.26961177141338	1.764748291329745	0	0
1.52	3.001650320651223	31.6132752356191	-87.43090911732291	0	0.9399999998679526	0	44.94394133339785	-10.0589610309815	0	59.96065111208853	1.046510783545544	-5.008786470006975	0	0	44.94394133339785	-10.0589610309815	0	59.96065111208853	1.046510783545544	-5.008786470006975	0	0	89.95893905304023	-0.7255606202092744	-17.03273493069478	-42.76933671165477	-11.80501778426903	19.3278237314987	0.0157340404413993	1.727946812702442	0	0	0	-11.28385984896157	0	88.30569254630865	1.727946812702442	0	0
1.53	2.817471149265842	32.00075567343566	-87.37951257976083	0	0.9399999998679526	0	44.94573142825433	-10.05229986555704	0	59.96163899777459	1.0465280254034	-5.007517959645756	0	0	44.94573142825433	-10.05229986555704	0	59.96163899777459	1.0465280254034	-5.007517959645756	0	0	89.94977227898866	-0.7878345088963089	-17.04671208348124	-41.69003468396659	-11.92031992107612	19.57750151027554	0.01644468010290031	1.69032779406896	0	0	0	-11.34232625030785	0	88.34257488470395	1.69032779406896	0	0
1.54	2.552485937746958	32.40827292780162	-87.35571966801078	0	0.9399999998679526	0	44.94777317999117	-10.04534554275027	0	59.96277775220072	1.046547900417507	-5.006242779444104	0	0	44.94777317999117	-10.04534554275027	0	59.96277775220072	1.046547900417507	-5.006242779444104	0	0	89.93289119038535	-0.7544078063797844	-17.23146207439325	-40.60789839149016	-12.13636912684452	19.88179105106633	0.01725330083051773	1.647007602863862	0	0	0	-11.41001355755393	0	88.38504678998851	1.647007602863862	0	0
1.55	2.323404700045433	32.82139289623876	-87.36866146515565	0	0.9399999998679526	0	44.94962064762207	-10.03960687424327	0	59.96381732646846	1.046566044411298	-5.005234312523883	0	0	44.94962064762207	-10.03960687424327	0	59.96381732646846	1.046566044411298	-5.005234312523883	0	0	89.90016428483118	-0.6841310567280918	-17.3923583716781	-39.54626150992834	-12.36724224583009	20.12923115158258	0.01831563065040423	1.607521539227629	0	0	0	-11.47189207642745	0	88.42375967774667	1.607521539227629	0	0
1.56	2.100594792569491	33.20663217842215	-87.20515267356093	0	0.9399999998679526	0	44.95155571401767	-10.03398074745045	0	59.9649198606181	1.046585287262325	-5.004278323990161	0	0	44.95155571401767	-10.03398074745045	0	59.9649198606181	1.046585287262325	-5.004278323990161	0	0	89.79013146904634	-0.8132619878102505	-17.75459139828586	-38.43050821673951	-12.71743399383818	20.54423746266054	0.01935549448164505	1.566042332097749	0	0	0	-11.53689717636871	0	88.46442669481375	1.566042332097749	0	0
1.57	1.866251318153755	33.39022555323409	-87.05163976579841	0	0.9399999998679526	0	44.95240139667509	-10.03205929881934	0	59.96541099119444	1.046593859107939	-5.003973704342235	0	0	44.95240139667509	-10.03205929881934	0	59.96541099119444	1.046593859107939	-5.003973704342235	0	0	89.2633580226924	-0.9187483224286258	-18.06820306663401	-37.11684074557908	-13.03976922693291	20.89533761142656	0.02040619686551921	1.546924222819395	0	0	0	-11.5680681015773	0	88.48317052646657	1.546924222819395	0	0
1.58	1.61924105065922	33.38390626233819	-86.57647005202506	0	0.9399999998679526	0	44.95242152086889	-10.03201185646746	0	59.96542249912756	1.046594059959262	-5.003966030963833	0	0	44.95242152086889	-10.03201185646746	0	59.96542249912756	1.046594059959262	-5.003966030963833	0	0	88.28199347050358	-1.35772245916041	-18.40846137529999	-35.57344950829263	-13.24796022593107	21.44787916802319	0.02194956558727136	1.546469296868842	0	0	0	-11.56881093262391	0	88.48361654625357	1.546469296868842	0	0
1.59	1.408980885948343	33.66544391492069	-86.31621891000633	0	0.9399999998679526	0	44.95244179596173	-10.03196406020927	0	59.96543408414028	1.046594262155878	-5.003958302468071	0	0	44.95244179596173	-10.03196406020927	0	59.96543408414028	1.046594262155878	-5.003958302468071	0	0	87.49579334728664	-1.613755039868833	-18.66233918771305	-33.97619114310586	-13.37891582581107	21.95594720876892	0.02361814119523445	1.546011055049239	0	0	0	-11.56955901831953	0	88.48406581699032	1.546011055049239	0	0
1.6	1.198154703807319	34.00523621050954	-86.12226112111532	0	0.9399999998679526	0	44.95438508825271	-10.02846820449717	0	59.966587919491	1.046614400381774	-5.003441363033587	0	0	44.95438508825271	-10.02846820449717	0	59.966587919491	1.046614400381774	-5.003441363033587	0	0	86.4425612309312	-1.843453788340557	-18.87718913211563	-32.08093039121106	-13.4127719231789	22.65727260678743	0.02584534727683468	1.500073917324365	0	0	0	-11.64686560898969	0	88.52910375974611	1.500073917324365	0	0
1.61	1.023925763021103	34.52740091308491	-85.82503793328964	0	0.9399999998679526	0	44.95508669988514	-10.02706987307579	0	59.96701816912143	1.046621909654431	-5.003227162282583	0	0	44.95508669988514	-10.02706987307579	0	59.96701816912143	1.046621909654431	-5.003227162282583	0	0	85.69669102920095	-2.158394742871757	-18.96418953558627	-30.32316261461254	-13.47889161666579	23.13753581323827	0.0291256867477961	1.483699945484915	0	0	0	-11.67424166078241	0	88.54515720394299	1.483699945484915	0	0
